<svg height="512pt" viewBox="0 0 512 512" width="512pt" xmlns="http://www.w3.org/2000/svg"><path d="m75 60h362c8.285156 0 15-6.714844 15-15v-15c0-16.570312-13.429688-30-30-30h-332c-16.570312 0-30 13.429688-30 30v15c0 8.285156 6.714844 15 15 15zm0 0"/><path d="m45 211h422c8.285156 0 15-6.714844 15-15v-15c0-16.570312-13.429688-30-30-30h-39.867188l8-61h-328.265624l8 61h-39.867188c-16.570312 0-30 13.429688-30 30v15c0 8.285156 6.714844 15 15 15zm0 0"/><path d="m482 301h-44.707031l12.003906-60h-386.59375l12.003906 60h-44.707031c-16.570312 0-30 13.429688-30 30v15c0 8.285156 6.714844 15 15 15h482c8.285156 0 15-6.714844 15-15v-15c0-16.570312-13.429688-30-30-30zm0 0"/><path d="m98.421875 512h315.15625c20.683594 0 38.640625-14.019531 43.652344-34.085938l21.472656-86.914062h-445.40625l21.472656 86.929688c5.011719 20.050781 22.96875 34.070312 43.652344 34.070312zm0 0"/></svg>