<?xml version="1.0" standalone="no"?>
<!DOCTYPE svg PUBLIC "-//W3C//DTD SVG 20010904//EN"
 "http://www.w3.org/TR/2001/REC-SVG-20010904/DTD/svg10.dtd">
<svg version="1.0" xmlns="http://www.w3.org/2000/svg"
 width="296.000000pt" height="296.000000pt" viewBox="0 0 296.000000 296.000000"
 preserveAspectRatio="xMidYMid meet">
<metadata>
Created by potrace 1.11, written by Peter Selinger 2001-2013
</metadata>
<g transform="translate(0.000000,296.000000) scale(0.100000,-0.100000)"
fill="#000000" stroke="none">
<path d="M1437 2950 c-90 -23 -185 -88 -256 -174 -104 -128 -170 -275 -289
-636 -119 -364 -183 -604 -286 -1090 -66 -307 -141 -546 -184 -582 -9 -8 -37
-20 -62 -27 -67 -19 -109 -49 -141 -99 -69 -110 -35 -243 76 -297 48 -23 63
-24 405 -36 553 -19 961 -3 1207 46 299 60 552 194 690 365 66 80 147 230 169
311 13 45 18 102 18 189 1 117 -1 129 -28 187 -101 220 -389 264 -571 87 -57
-55 -91 -127 -105 -224 -31 -202 -65 -280 -159 -357 -112 -92 -266 -147 -477
-172 -125 -15 -397 -25 -393 -15 2 5 36 72 75 150 148 296 253 656 388 1334
66 329 95 464 122 555 13 47 17 51 63 68 132 47 193 216 116 327 -43 62 -107
88 -235 94 -58 3 -122 1 -143 -4z m249 -175 c30 -41 -11 -105 -66 -105 -16 0
-42 -11 -58 -25 -59 -50 -85 -142 -197 -698 -143 -711 -260 -1105 -408 -1369
-33 -59 -109 -165 -183 -256 -15 -18 -24 -36 -20 -40 13 -13 624 -8 721 6 284
41 465 120 598 260 78 83 122 177 142 307 30 189 49 226 140 270 45 23 65 27
109 23 62 -5 114 -35 141 -82 44 -74 19 -294 -50 -434 -83 -167 -263 -303
-505 -380 -276 -87 -597 -111 -1250 -92 -234 7 -433 17 -443 22 -23 12 -23 70
1 91 9 8 35 19 57 22 157 29 223 177 360 812 95 441 153 655 277 1028 137 412
235 582 373 647 33 15 59 18 143 16 90 -3 106 -6 118 -23z"/>
</g>
</svg>
